<?xml version="1.0" encoding="UTF-8" standalone="no"?>
<!-- Created with Inkscape (http://www.inkscape.org/) -->

<svg
   xmlns:dc="http://purl.org/dc/elements/1.1/"
   xmlns:cc="http://creativecommons.org/ns#"
   xmlns:rdf="http://www.w3.org/1999/02/22-rdf-syntax-ns#"
   xmlns:svg="http://www.w3.org/2000/svg"
   xmlns="http://www.w3.org/2000/svg"
   xmlns:xlink="http://www.w3.org/1999/xlink"
   xmlns:sodipodi="http://sodipodi.sourceforge.net/DTD/sodipodi-0.dtd"
   xmlns:inkscape="http://www.inkscape.org/namespaces/inkscape"
   width="159.60146mm"
   height="85.830917mm"
   id="svg1"
   sodipodi:version="0.32"
   inkscape:version="0.92.4 (5da689c313, 2019-01-14)"
   sodipodi:modified="true"
   version="1.1"
   sodipodi:docname="ilsc.svg">
  <defs
     id="defs3">
    <pattern
       inkscape:collect="always"
       xlink:href="#pattern14"
       id="pattern21"
       patternTransform="matrix(3.685712,0.000000,0.000000,6.714287,85.71427,-240.0004)" />
    <pattern
       patternUnits="userSpaceOnUse"
       width="600.00000"
       height="350.00000"
       id="pattern9"
       patternTransform="matrix(0.990476,0.000000,0.000000,1.195918,62.85714,99.99997)">
      <image
         xlink:href="C:\Dokumente und Einstellungen\Chaos\Desktop\vorschlag4blau.jpg"
         sodipodi:absref="C:\Dokumente und Einstellungen\Chaos\Desktop\vorschlag4blau.jpg"
         width="600.00000"
         height="350.00000"
         id="image10" />
    </pattern>
    <pattern
       patternUnits="userSpaceOnUse"
       width="600.00000"
       height="350.00000"
       patternTransform="matrix(0.938095,0.000000,0.000000,1.081633,54.28571,142.8571)"
       id="pattern14">
      <image
         xlink:href="C:\Dokumente und Einstellungen\Chaos\Desktop\vorschlag4blau.jpg"
         sodipodi:absref="C:\Dokumente und Einstellungen\Chaos\Desktop\vorschlag4blau.jpg"
         width="600.00000"
         height="350.00000"
         id="image15"
         x="54.285713"
         y="142.85715"
         transform="translate(-54.28571,-142.8571)" />
    </pattern>
    <pattern
       patternUnits="userSpaceOnUse"
       width="562.85712"
       height="378.57144"
       patternTransform="translate(54.28571,142.8571)"
       id="pattern17">
      <rect
         style="fill:url(#pattern14);stroke:none"
         width="562.85712"
         height="378.57144"
         x="54.285713"
         y="142.85715"
         id="rect18"
         transform="translate(-54.28571,-142.8571)" />
    </pattern>
    <pattern
       patternUnits="userSpaceOnUse"
       width="2211.4285"
       height="2350.0000"
       patternTransform="translate(85.71429,-240.0000)"
       id="pattern22">
      <rect
         style="fill:url(#pattern21);stroke:none"
         width="2211.4285"
         height="2350.0000"
         x="85.714287"
         y="-240.00000"
         id="rect23"
         transform="translate(-85.71429,240.0000)" />
    </pattern>
    <pattern
       patternUnits="userSpaceOnUse"
       width="42.907094"
       height="30.927362"
       patternTransform="translate(53.75253,98.48634)"
       id="pattern114">
      <path
         style="fill:none;fill-opacity:0.75000000;fill-rule:evenodd;stroke:#000000;stroke-width:0.25000000pt;stroke-linecap:butt;stroke-linejoin:miter;stroke-opacity:1.0000000"
         d="M 58.567568,98.642588 C 53.908784,128.59191 53.908784,129.25745 53.908784,129.25745 L 89.847973,129.25745 L 96.503378,98.642588 L 58.567568,98.642588 z "
         id="path115"
         transform="translate(-53.75253,-98.48634)" />
    </pattern>
    <clipPath
       clipPathUnits="userSpaceOnUse"
       id="clipPath60">
      <rect
         id="rect62"
         width="617.43799"
         height="342.60278"
         x="16.941896"
         y="6.2369866" />
    </clipPath>
    <clipPath
       clipPathUnits="userSpaceOnUse"
       id="clipPath64">
      <rect
         id="rect66"
         width="617.43799"
         height="342.60278"
         x="16.941896"
         y="6.2369866" />
    </clipPath>
    <clipPath
       clipPathUnits="userSpaceOnUse"
       id="clipPath68">
      <rect
         id="rect70"
         width="617.43799"
         height="342.60278"
         x="16.941896"
         y="6.2369866" />
    </clipPath>
    <clipPath
       clipPathUnits="userSpaceOnUse"
       id="clipPath72">
      <rect
         id="rect74"
         width="617.43799"
         height="342.60278"
         x="16.941896"
         y="6.2369866" />
    </clipPath>
    <clipPath
       clipPathUnits="userSpaceOnUse"
       id="clipPath76">
      <rect
         id="rect78"
         width="617.43799"
         height="342.60278"
         x="16.941896"
         y="6.2369866" />
    </clipPath>
  </defs>
  <sodipodi:namedview
     id="base"
     pagecolor="#ffffff"
     bordercolor="#666666"
     borderopacity="1.0"
     inkscape:pageopacity="0.0"
     inkscape:pageshadow="2"
     inkscape:zoom="1.0624549"
     inkscape:cx="139.9672"
     inkscape:cy="217.31608"
     inkscape:document-units="px"
     inkscape:current-layer="layer1"
     inkscape:window-width="1920"
     inkscape:window-height="1017"
     inkscape:window-x="-8"
     inkscape:window-y="-8"
     showgrid="false"
     inkscape:window-maximized="1" />
  <metadata
     id="metadata4">
    <rdf:RDF>
      <cc:Work
         rdf:about="">
        <dc:format>image/svg+xml</dc:format>
        <dc:type
           rdf:resource="http://purl.org/dc/dcmitype/StillImage" />
      </cc:Work>
    </rdf:RDF>
  </metadata>
  <g
     inkscape:label="Layer 1"
     inkscape:groupmode="layer"
     id="layer1"
     transform="translate(-31.161802,-24.43945)">
    <rect
       style="fill:none;stroke:none"
       width="594.28558"
       height="418.57138"
       x="62.857143"
       y="100.00002"
       id="rect11"
       clip-path="url(#clipPath76)" />
    <rect
       style="fill:none;stroke:none"
       width="562.85712"
       height="378.57144"
       x="54.285713"
       y="142.85715"
       id="rect19"
       clip-path="url(#clipPath72)" />
    <path
       style="fill:#6699c6;fill-opacity:1;fill-rule:evenodd;stroke:#000000;stroke-width:0.25000001pt;stroke-linecap:butt;stroke-linejoin:miter;stroke-opacity:1"
       d="m 402.125,24.625 c -2.77173,-0.219695 -5.84363,1.497713 -7.375,4.5625 l -13.53125,100.40625 c 0,1e-5 4.77689,12.84371 12.40625,2.78125 4.84985,-25.90396 11.46606,-89.30358 14.09375,-100.78125 -0.33369,-4.610931 -2.82202,-6.749055 -5.59375,-6.96875 z m 189.96875,4.53125 c -2.04141,0.07221 -4.484,0.741964 -7.0625,2.03125 l -139.8125,107.84375 c 10e-6,0 -12.75046,17.96202 6.25,11.15625 37.1515,-26.95973 123.90795,-96.297612 140.75,-107.9375 8.49172,-8.344184 5.99924,-13.310374 -0.125,-13.09375 z m -324.5,44.1875 C 263.07016,73.9053 261.06672,79.507601 263.5625,84 l 75.1875,67.875 c 10e-6,0 13.30574,3.32349 9.3125,-8.65625 -18.63513,-18.63513 -67.20101,-59.879223 -75.1875,-68.53125 -1.99662,-1.164696 -3.77339,-1.530933 -5.28125,-1.34375 z m -80.5625,39.9375 -39.9375,0.65625 -30.625,163.0625 37.9375,-0.65625 z M 75.875,113.9375 l -5.3125,31.28125 37.90625,0.6875 4.6875,-31.28125 z m 324.40625,42.46875 C 368.67457,155.8798 325.19636,166.93961 318.125,229.75 c -5.98988,52.57771 58.58277,56.58277 95.1875,43.9375 3.32768,-15.97297 3.98142,-16.65794 5.3125,-29.96875 -21.2973,7.98649 -65.23057,20.64105 -59.90625,-25.28125 5.32433,-43.92567 55.2424,-36.60472 69.21875,-24.625 2.66216,-14.64189 3.33784,-15.95524 6,-32.59375 0,0 -14.69224,-4.49663 -33.65625,-4.8125 z m -137.3125,0.71875 c -28.09358,-0.59665 -60.97381,5.46136 -63.96875,38.03125 -3.32769,49.24999 63.21537,28.60895 61.21875,49.90625 -1.99662,21.29729 -60.55743,2.65541 -69.875,-4 -1.99661,13.31083 -1.98142,16.63007 -3.3125,31.9375 15.30743,3.32769 101.81334,23.96199 108.46875,-29.28125 6.65541,-53.24324 -64.54645,-33.93665 -61.21875,-51.90625 2.66217,-18.63512 59.87247,-3.98057 64.53125,1.34375 3.3277,-15.30743 4.68749,-31.9375 4.6875,-31.9375 0.29118,0.87352 -18.68069,-3.62969 -40.53125,-4.09375 z M 67.875,159.875 44.59375,276.34375 81.1875,277.6875 104.5,159.875 Z m 395.15625,15.40625 c -10e-6,0 -17.24584,2.45413 -4.4375,11.9375 33.86665,9.55072 117.05435,27.63085 132.03125,32.34375 12.20127,0.99448 11.89801,-8.37809 4,-12.5625 z m -25.84375,47 c -5.83308,-0.0111 -7.94408,7.09437 -4.65625,11.375 l 76.78125,46.90625 c -10e-6,-10e-6 12.52486,0.0793 7.4375,-10.3125 -19.24292,-13.33007 -68.51645,-41.15915 -76.84375,-47.5 -0.98067,-0.32164 -1.88545,-0.46716 -2.71875,-0.46875 z"
       id="path190"
       clip-path="url(#clipPath68)"
       inkscape:connector-curvature="0" />
    <text
       xml:space="preserve"
       style="font-style:normal;font-variant:normal;font-weight:normal;font-stretch:normal;line-height:0%;font-family:'Bitstream Vera Sans';writing-mode:lr-tb;text-anchor:start;fill:#000000;fill-opacity:1;stroke:none;stroke-width:1.00000003pt;stroke-linecap:butt;stroke-linejoin:miter;stroke-opacity:1"
       x="31.280405"
       y="361.5311"
       id="text646"
       clip-path="url(#clipPath64)"><tspan
         sodipodi:role="line"
         id="tspan647"
         x="31.280405"
         y="361.5311"
         style="font-size:0.1px;line-height:1.25">Ilm</tspan></text>
    <text
       xml:space="preserve"
       style="font-style:italic;font-variant:normal;font-weight:bold;font-stretch:normal;line-height:0%;font-family:'Bitstream Vera Sans';writing-mode:lr-tb;text-anchor:start;fill:#000000;fill-opacity:1;stroke:none;stroke-width:1.00000003pt;stroke-linecap:butt;stroke-linejoin:miter;stroke-opacity:1"
       x="31.280405"
       y="336.9061"
       id="text649"
       clip-path="url(#clipPath60)"><tspan
         sodipodi:role="line"
         id="tspan650"
         x="31.280405"
         y="336.9061"
         style="font-size:34.70000076px;line-height:1">Ilmenauer Studentenclub e.V.</tspan></text>
  </g>
</svg>
